<svg id="visual" viewBox="0 0 900 600" width="900" height="600" xmlns="http://www.w3.org/2000/svg" xmlns:xlink="http://www.w3.org/1999/xlink" version="1.1"><path d="M0 115L82 91L164 127L245 121L327 121L409 85L491 79L573 55L655 127L736 121L818 49L900 43L900 0L818 0L736 0L655 0L573 0L491 0L409 0L327 0L245 0L164 0L82 0L0 0Z" fill="#00cc8e"></path><path d="M0 295L82 259L164 361L245 247L327 253L409 289L491 193L573 181L655 331L736 289L818 271L900 235L900 41L818 47L736 119L655 125L573 53L491 77L409 83L327 119L245 119L164 125L82 89L0 113Z" fill="#00b98a"></path><path d="M0 475L82 475L164 463L245 475L327 481L409 397L491 445L573 379L655 463L736 421L818 379L900 361L900 233L818 269L736 287L655 329L573 179L491 191L409 287L327 251L245 245L164 359L82 257L0 293Z" fill="#00a784"></path><path d="M0 529L82 541L164 529L245 565L327 529L409 535L491 535L573 511L655 535L736 541L818 505L900 535L900 359L818 377L736 419L655 461L573 377L491 443L409 395L327 479L245 473L164 461L82 473L0 473Z" fill="#00957c"></path><path d="M0 601L82 601L164 601L245 601L327 601L409 601L491 601L573 601L655 601L736 601L818 601L900 601L900 533L818 503L736 539L655 533L573 509L491 533L409 533L327 527L245 563L164 527L82 539L0 527Z" fill="#038373"></path></svg>